<svg width="21" height="20" viewBox="0 0 21 20" fill="none" xmlns="http://www.w3.org/2000/svg">
<path d="M8.10795 2.84167C8.71629 2.68333 9.34962 2.6 9.99962 2.6C10.6496 2.6 11.258 2.68333 11.858 2.83333L12.6496 0.358333C11.7913 0.116667 10.8996 0 9.99962 0C9.09962 0 8.18295 0.125 7.30795 0.366667L8.10795 2.84167Z" fill="#2B69B7"/>
<path d="M17.2998 8.69166C17.3831 9.14999 17.4248 9.61666 17.4248 10.0917H19.9998C19.9998 8.99999 19.8331 7.93333 19.4915 6.90833L17.2998 8.69166Z" fill="#2B69B7"/>
<path d="M12.7002 3.1083C12.7669 3.1333 12.8252 3.1583 12.8919 3.1833C13.2085 3.31663 13.5169 3.47497 13.8085 3.64997C15.6169 1.96663 13.9252 3.5833 15.7585 1.8333C15.1752 1.42497 14.5585 1.07497 13.9002 0.791634C13.7669 0.733301 13.6335 0.683301 13.5002 0.633301L12.7085 3.1083H12.7002Z" fill="#2B69B7"/>
<path d="M1.64167 4.54166C1.30833 5.04999 1.025 5.59166 0.783333 6.15832C0.258333 7.39999 0 8.72499 0 10.0833H2.575C2.575 9.07499 2.775 8.09166 3.15833 7.16666C3.31667 6.78333 3.51667 6.40832 3.73333 6.05832L1.65 4.53333L1.64167 4.54166Z" fill="#2B69B7"/>
<path d="M6.47468 0.650024C6.34968 0.700024 6.23302 0.741691 6.10802 0.800024C4.91635 1.30836 3.84968 2.03336 2.93302 2.95836C2.65802 3.23336 2.40802 3.52502 2.16635 3.82502L4.25802 5.35002C4.41635 5.15836 4.58302 4.97502 4.75802 4.80002C5.44135 4.10836 6.23302 3.56669 7.11635 3.19169C7.17468 3.16669 7.22468 3.15002 7.28302 3.12502L6.48302 0.658358L6.47468 0.650024Z" fill="#2B69B7"/>
<path fill-rule="evenodd" clip-rule="evenodd" d="M7.72462 10.8333C7.72462 11.2583 7.72462 11.9833 10.0163 11.9833C13.9996 11.9833 14.5996 14.1333 14.5996 15.4166C14.5996 16.8916 13.458 18.375 11.1663 18.7583V19.9916H8.87462V18.7583C6.19129 18.3333 5.43295 16.4666 5.43295 15.4166H7.72462C7.72462 15.575 7.90795 16.5583 10.0163 16.5583C11.5996 16.5583 12.308 15.7833 12.308 15.4166C12.308 15.05 12.308 14.275 10.0163 14.275C6.02462 14.275 5.43295 12.125 5.43295 10.8416C5.43295 9.36663 6.57462 7.8833 8.87462 7.5083V6.2583H11.1663V7.54163C11.933 7.69997 12.6163 8.1083 13.1163 8.7083C13.6163 9.3083 13.8996 10.0583 13.9163 10.8416H11.6246C11.6163 10.4333 11.508 9.69997 10.0246 9.69997C8.54129 9.69997 7.73295 10.425 7.73295 10.8416L7.72462 10.8333Z" fill="#2B69B7"/>
<path d="M19.716 2.40842L12.8744 6.08342C13.7244 6.60008 14.7494 7.90008 15.0494 8.82508L19.966 2.72508C20.1244 2.55842 19.916 2.30008 19.716 2.41675V2.40842Z" fill="#2B69B7"/>
</svg>
