<svg width="77" height="52" viewBox="0 0 77 52" fill="none" xmlns="http://www.w3.org/2000/svg">
<path d="M76.4342 11.6726C73.6523 7.59127 71.8947 5.35006 68.3669 1.64968C67.5351 0.777451 65.8639 0.685256 64.9739 1.47521C64.0832 2.26631 64.0351 3.61566 64.8669 4.48789C66.3665 6.06053 67.5785 7.35563 68.6369 8.58646C40.9322 1.99609 23.497 13.4359 13.9492 24.0227C3.45574 35.6591 0.40513 48.9004 0.267781 49.4621C-0.00505325 50.5851 0.43227 51.6401 1.29664 51.8562C2.28688 52.1039 2.93607 51.5452 3.3726 50.2621C3.41516 50.1382 7.1361 37.4993 17.1464 26.8868C30.4334 12.8016 47.1531 8.42018 68.4199 13.915C66.8598 14.8038 65.1895 15.7214 63.6581 16.3452C62.5413 16.8001 61.458 18.2611 61.9451 19.3467C62.2802 20.0925 63.1224 20.6647 64.0579 20.7571C64.6878 20.8199 65.3237 20.7143 65.6736 20.5705C69.9108 18.8418 75.3728 14.9902 75.6378 14.8417C76.6832 14.2561 77.1068 12.6587 76.4326 11.67L76.4342 11.6726Z" fill="white"/>
</svg>
